<svg width="115" height="115" viewBox="0 0 115 115" fill="none" xmlns="http://www.w3.org/2000/svg">
<path d="M29.7863 95.8586C22.9553 95.8586 17.0775 93.3963 12.1528 88.4716C7.22815 83.5469 4.76582 77.6691 4.76582 70.8381C4.76582 64.6425 6.73171 59.1817 10.6635 54.4556C14.5953 49.7295 19.659 46.8899 25.8545 45.9367C27.4431 38.232 31.1764 31.9371 37.0542 27.0522C42.932 22.1672 49.7233 19.7247 57.4281 19.7247C66.4037 19.7247 73.9297 22.9615 80.0061 29.4351C86.0825 35.9086 89.1207 43.6729 89.1207 52.728V55.5875C94.8397 55.4286 99.6849 57.2754 103.656 61.1277C107.628 64.9801 109.614 69.8452 109.614 75.723C109.614 81.2037 107.628 85.9298 103.656 89.9013C99.6849 93.8729 94.9588 95.8586 89.4782 95.8586H60.7641C58.8578 95.8586 57.1898 95.1437 55.76 93.714C54.3303 92.2842 53.6154 90.6162 53.6154 88.7099V57.9704L43.7263 67.8595L38.6031 62.7362L57.1898 44.1495L75.7764 62.7362L70.6532 67.8595L60.7641 57.9704V88.7099H89.4782C93.0525 88.7099 96.1106 87.439 98.6524 84.8972C101.194 82.3555 102.465 79.2974 102.465 75.723C102.465 72.1487 101.194 69.0906 98.6524 66.5489C96.1106 64.0071 93.0525 62.7362 89.4782 62.7362H81.972V52.728C81.972 45.6587 79.5692 39.5823 74.7637 34.4988C69.9582 29.4152 64.0208 26.8735 56.9515 26.8735C49.8822 26.8735 43.9249 29.4152 39.0797 34.4988C34.2344 39.5823 31.8118 45.6587 31.8118 52.728H29.548C24.6234 52.728 20.4533 54.4556 17.0378 57.9108C13.6223 61.366 11.9145 65.6354 11.9145 70.7189C11.9145 75.6436 13.662 79.8733 17.1569 83.4079C20.6519 86.9426 24.8617 88.7099 29.7863 88.7099H46.4667V95.8586H29.7863Z" fill="#0762A3"/>
</svg>
